<svg width="581" height="195" viewBox="0 0 581 195" fill="none" xmlns="http://www.w3.org/2000/svg">
<path fill-rule="evenodd" clip-rule="evenodd" d="M204.921 159.777C204.178 160.348 203.705 161.118 203.505 162.086L203.075 164.179H208.825L208.054 168.237H202.261L198.656 186.098H193.119L198.011 161.742C198.497 159.265 199.62 157.378 201.381 156.081C203.139 154.787 205.106 154.138 207.282 154.138C208.913 154.138 210.37 154.48 211.659 155.163L210.071 159.565C209.699 159.392 209.262 159.243 208.762 159.116C208.261 158.988 207.824 158.923 207.454 158.923C206.509 158.923 205.665 159.209 204.921 159.777Z" fill="white"/>
<path fill-rule="evenodd" clip-rule="evenodd" d="M220.756 154.179C221.242 154.694 221.487 155.349 221.487 156.146C221.487 157.229 221.1 158.147 220.327 158.903C219.553 159.658 218.653 160.033 217.624 160.033C216.85 160.033 216.221 159.777 215.733 159.265C215.249 158.754 215.005 158.097 215.005 157.299C215.005 156.217 215.391 155.298 216.165 154.543C216.936 153.79 217.837 153.411 218.868 153.411C219.639 153.411 220.269 153.667 220.756 154.179ZM219.77 163.24L215.178 186.098H209.642L214.188 163.24H219.77Z" fill="white"/>
<path fill-rule="evenodd" clip-rule="evenodd" d="M230.67 177.852C230.554 178.337 230.498 178.834 230.498 179.347C230.498 180.744 231.127 181.441 232.386 181.441C233.216 181.441 234.344 181.129 235.777 180.5L236.25 184.688C234.187 185.8 232.2 186.353 230.285 186.353C228.594 186.353 227.244 185.884 226.228 184.945C225.211 184.004 224.703 182.652 224.703 180.885C224.703 180.316 224.774 179.632 224.918 178.834L229.123 157.896H234.705L233.416 164.179H240.025L239.21 168.237H232.601L230.67 177.852Z" fill="white"/>
<path fill-rule="evenodd" clip-rule="evenodd" d="M261.268 177.852C261.154 178.337 261.098 178.834 261.098 179.347C261.098 180.744 261.727 181.441 262.984 181.441C263.816 181.441 264.944 181.129 266.377 180.5L266.849 184.688C264.787 185.8 262.799 186.353 260.883 186.353C259.194 186.353 257.842 185.884 256.827 184.945C255.811 184.004 255.303 182.652 255.303 180.885C255.303 180.316 255.374 179.632 255.518 178.834L259.723 157.896H265.304L264.015 164.179H270.624L269.81 168.237H263.201L261.268 177.852Z" fill="white"/>
<path fill-rule="evenodd" clip-rule="evenodd" d="M282.019 168.793C280.917 169.449 280.05 170.361 279.421 171.529C278.791 172.696 278.478 174.021 278.478 175.501C278.478 177.353 279.008 178.841 280.065 179.966C281.123 181.092 282.526 181.655 284.272 181.655C285.645 181.655 286.874 181.326 287.961 180.671C289.05 180.017 289.908 179.105 290.537 177.937C291.165 176.769 291.481 175.445 291.481 173.963C291.481 172.14 290.96 170.66 289.913 169.52C288.871 168.38 287.476 167.811 285.731 167.811C284.358 167.811 283.12 168.138 282.019 168.793ZM291.976 164.37C293.65 165.241 294.937 166.472 295.839 168.066C296.739 169.663 297.189 171.484 297.189 173.537C297.189 176.014 296.612 178.222 295.452 180.158C294.294 182.096 292.706 183.606 290.687 184.688C288.669 185.771 286.389 186.312 283.842 186.312C281.64 186.312 279.701 185.871 278.027 184.988C276.354 184.104 275.065 182.871 274.164 181.292C273.262 179.71 272.812 177.882 272.812 175.799C272.812 173.323 273.385 171.121 274.529 169.2C275.674 167.275 277.261 165.774 279.294 164.692C281.324 163.61 283.613 163.068 286.161 163.068C288.361 163.068 290.3 163.502 291.976 164.37Z" fill="white"/>
<path fill-rule="evenodd" clip-rule="evenodd" d="M328.671 179.41C329.715 178.771 330.545 177.908 331.159 176.825C331.774 175.743 332.082 174.56 332.082 173.279C332.082 171.655 331.609 170.353 330.666 169.371C329.721 168.387 328.464 167.895 326.889 167.895C325.66 167.895 324.522 168.224 323.478 168.878C322.432 169.533 321.604 170.411 320.99 171.506C320.373 172.604 320.067 173.807 320.067 175.116C320.067 176.714 320.538 177.986 321.481 178.942C322.426 179.896 323.685 180.374 325.258 180.374C326.489 180.374 327.625 180.052 328.671 179.41ZM312.513 191.439L315.003 187.636C316.975 189.174 319.292 189.944 321.954 189.944C324.128 189.944 325.875 189.501 327.19 188.618C328.505 187.735 329.364 186.453 329.766 184.774L330.496 181.912C329.491 182.909 328.378 183.662 327.149 184.175C325.916 184.688 324.601 184.945 323.198 184.945C321.481 184.945 319.959 184.547 318.629 183.747C317.297 182.949 316.26 181.826 315.516 180.374C314.773 178.919 314.399 177.268 314.399 175.417C314.399 173.108 314.917 171.008 315.944 169.115C316.975 167.219 318.376 165.73 320.151 164.647C321.926 163.565 323.898 163.024 326.073 163.024C327.877 163.024 329.401 163.396 330.645 164.136C331.89 164.878 332.782 165.946 333.326 167.34L334.228 163.24H339.808L335.258 185.244C334.628 188.263 333.192 190.576 330.946 192.187C328.699 193.796 325.746 194.601 322.084 194.601C318.707 194.601 315.516 193.546 312.513 191.439Z" fill="white"/>
<path fill-rule="evenodd" clip-rule="evenodd" d="M356.717 164.158C358.146 163.431 359.734 163.054 361.479 163.024L360.793 168.408L360.065 168.365C357.974 168.365 356.159 168.971 354.614 170.182C353.069 171.393 352.038 172.951 351.522 174.861L349.249 186.098H343.669L348.218 163.24H353.84L353.024 167.34C354.055 165.946 355.284 164.884 356.717 164.158Z" fill="white"/>
<path fill-rule="evenodd" clip-rule="evenodd" d="M372.446 168.793C371.344 169.449 370.477 170.361 369.847 171.529C369.218 172.696 368.904 174.021 368.904 175.501C368.904 177.353 369.433 178.841 370.492 179.966C371.549 181.092 372.952 181.655 374.699 181.655C376.072 181.655 377.301 181.326 378.388 180.671C379.475 180.017 380.333 179.105 380.964 177.937C381.592 176.769 381.907 175.445 381.907 173.963C381.907 172.14 381.386 170.66 380.34 169.52C379.298 168.38 377.9 167.811 376.158 167.811C374.785 167.811 373.544 168.138 372.446 168.793ZM382.402 164.37C384.074 165.241 385.363 166.472 386.263 168.066C387.164 169.663 387.616 171.484 387.616 173.537C387.616 176.014 387.037 178.222 385.877 180.158C384.719 182.096 383.131 183.606 381.113 184.688C379.096 185.771 376.813 186.312 374.269 186.312C372.065 186.312 370.126 185.871 368.454 184.988C366.778 184.104 365.491 182.871 364.589 181.292C363.689 179.71 363.238 177.882 363.238 175.799C363.238 173.323 363.81 171.121 364.955 169.2C366.1 167.275 367.688 165.774 369.72 164.692C371.749 163.61 374.039 163.068 376.585 163.068C378.788 163.068 380.727 163.502 382.402 164.37Z" fill="white"/>
<path fill-rule="evenodd" clip-rule="evenodd" d="M429.629 176.526C429.229 178.464 428.486 180.18 427.399 181.675C426.312 183.171 424.967 184.324 423.364 185.137C421.761 185.947 420.016 186.353 418.128 186.353C416.297 186.353 414.68 185.912 413.279 185.029C411.876 184.147 410.947 182.979 410.49 181.527C409.488 182.979 408.099 184.147 406.326 185.029C404.551 185.912 402.749 186.353 400.92 186.353C398.456 186.353 396.526 185.693 395.125 184.367C393.722 183.042 393.022 181.24 393.022 178.962C393.022 178.194 393.108 177.381 393.28 176.526L395.942 163.24H401.56L398.902 176.269C398.816 176.699 398.772 177.097 398.772 177.467C398.772 178.605 399.13 179.496 399.846 180.136C400.559 180.777 401.547 181.099 402.806 181.099C404.293 181.099 405.575 180.666 406.647 179.795C407.719 178.927 408.401 177.751 408.687 176.269L411.347 163.24H416.927L414.265 176.269C414.179 176.699 414.138 177.097 414.138 177.467C414.138 178.579 414.508 179.46 415.253 180.117C415.996 180.772 417.013 181.099 418.3 181.099C419.759 181.099 421.018 180.658 422.077 179.773C423.134 178.891 423.808 177.723 424.094 176.269L426.711 163.24H432.291L429.629 176.526Z" fill="white"/>
<path fill-rule="evenodd" clip-rule="evenodd" d="M237.387 70.498C239.037 70.498 240.372 71.8296 240.372 73.47V107.999C240.372 111.96 239.352 115.467 237.312 118.519C235.273 121.571 232.414 123.946 228.738 125.64C225.062 127.333 220.863 128.181 216.139 128.181C211.737 128.181 207.404 127.452 203.137 125.998C200.096 124.962 197.496 123.699 195.34 122.213C193.962 121.263 193.614 119.384 194.587 118.023L196.08 115.934C197.008 114.636 198.796 114.292 200.132 115.17C201.725 116.217 203.559 117.119 205.633 117.874C208.773 119.02 211.818 119.592 214.771 119.592C217.614 119.592 220.164 119.092 222.419 118.09C224.673 117.087 226.431 115.692 227.692 113.903C228.953 112.114 229.584 110.076 229.584 107.785V101.701C227.758 104.184 225.439 106.092 222.621 107.428C219.804 108.765 216.648 109.457 213.161 109.503C209.135 109.503 205.538 108.715 202.373 107.139C199.205 105.566 196.749 103.347 195.006 100.483C193.261 97.6229 192.389 94.3311 192.389 90.6097V73.47C192.389 71.8296 193.726 70.498 195.376 70.498H200.193C201.841 70.498 203.178 71.8296 203.178 73.47V89.6798C203.178 92.9232 204.344 95.5585 206.679 97.5875C209.014 99.6147 212.059 100.628 215.817 100.628C219.574 100.582 222.712 99.4473 225.236 97.2286C227.758 95.0118 229.207 92.0882 229.584 88.4616V73.47C229.584 71.8296 230.92 70.498 232.569 70.498H237.387Z" fill="white"/>
<path fill-rule="evenodd" clip-rule="evenodd" d="M262.994 93.1855C260.741 95.3316 259.613 98.1232 259.613 101.56C259.613 104.993 260.741 107.785 262.994 109.933C265.248 112.079 268.2 113.152 271.85 113.152C275.393 113.152 278.291 112.079 280.545 109.933C282.8 107.785 283.927 104.993 283.927 101.56C283.927 98.1232 282.8 95.3316 280.545 93.1855C278.291 91.0374 275.393 89.9643 271.85 89.9643C268.2 89.9643 265.248 91.0374 262.994 93.1855ZM283.644 84.4538C287.054 86.0774 289.71 88.3538 291.617 91.2885C293.521 94.2232 294.473 97.5987 294.473 101.415C294.473 105.28 293.521 108.69 291.617 111.647C289.71 114.608 287.054 116.898 283.644 118.519C280.235 120.143 276.305 120.952 271.85 120.952C267.342 120.952 263.369 120.143 259.936 118.519C256.5 116.898 253.829 114.608 251.926 111.647C250.018 108.69 249.066 105.28 249.066 101.415C249.066 97.5987 250.018 94.2232 251.926 91.2885C253.829 88.3538 256.5 86.0774 259.936 84.4538C263.369 82.8321 267.342 82.0212 271.85 82.0212C276.305 82.0212 280.235 82.8321 283.644 84.4538Z" fill="white"/>
<path fill-rule="evenodd" clip-rule="evenodd" d="M343.663 85.2795V117.623C343.663 119.263 342.328 120.595 340.678 120.595H336.102C334.452 120.595 333.117 119.263 333.117 117.623V113.509C330.218 118.473 325.226 120.952 318.143 120.952C313.312 120.952 309.499 119.641 306.709 117.017C303.918 114.394 302.522 110.814 302.522 106.282V85.2795C302.522 83.6374 303.86 82.3076 305.508 82.3076H310.086C311.735 82.3076 313.069 83.6374 313.069 85.2795V103.563C313.069 106.234 313.887 108.333 315.526 109.86C317.162 111.387 319.43 112.15 322.327 112.15C325.656 112.103 328.286 111.052 330.218 109.001C332.149 106.952 333.117 104.35 333.117 101.201V85.2795C333.117 83.6374 334.452 82.3076 336.102 82.3076H340.678C342.328 82.3076 343.663 83.6374 343.663 85.2795Z" fill="white"/>
<path fill-rule="evenodd" clip-rule="evenodd" d="M373.41 83.9889C374.995 83.1557 376.746 82.5773 378.666 82.2556C380.484 81.9487 382.144 83.3603 382.144 85.1959V88.0153C382.144 89.5589 380.956 90.8756 379.41 90.9723C376.21 91.175 373.566 92.0901 371.478 93.7229C368.822 95.7966 367.492 98.6011 367.492 102.131V117.623C367.492 119.263 366.156 120.595 364.509 120.595H360.012C358.363 120.595 357.027 119.263 357.027 117.623V85.2796C357.027 83.6374 358.363 82.3076 360.012 82.3076H364.509C366.156 82.3076 367.492 83.6374 367.492 85.2796V89.6798C368.943 87.1988 370.914 85.3019 373.41 83.9889Z" fill="white"/>
<path fill-rule="evenodd" clip-rule="evenodd" d="M406.395 80.9109C404.676 82.4136 403.819 84.4073 403.819 86.8864V93.2561H422.572C424.22 93.2561 425.557 94.5859 425.557 96.2281V98.6588C425.557 100.299 424.22 101.631 422.572 101.631H403.819V117.623C403.819 119.263 402.483 120.595 400.834 120.595H395.936C394.287 120.595 392.951 119.263 392.951 117.623V86.6725C392.951 83.3342 393.741 80.4106 395.325 77.9055C396.907 75.4023 399.162 73.4681 402.089 72.1086C405.013 70.751 408.409 70.0703 412.274 70.0703C415.492 70.0703 418.739 70.3697 422.015 70.9648C424.053 71.3368 425.903 71.7757 427.565 72.2853C429.147 72.7707 430.042 74.424 429.56 75.9993L428.723 78.7424C428.245 80.3121 426.571 81.2271 425.002 80.7268C423.547 80.2637 422.013 79.8601 420.403 79.5142C417.721 78.9433 415.333 78.6569 413.237 78.6569C410.392 78.6569 408.114 79.4082 406.395 80.9109Z" fill="white"/>
<path fill-rule="evenodd" clip-rule="evenodd" d="M448.098 111.434C448.795 112.15 449.761 112.507 450.995 112.507C451.373 112.507 451.78 112.466 452.223 112.38C453.902 112.058 455.533 113.104 455.794 114.787L456.106 116.803C456.325 118.212 455.516 119.615 454.154 120.057C452.172 120.701 450.235 121.024 448.337 121.024C444.958 121.024 442.167 119.987 439.967 117.911C437.764 115.836 436.664 112.866 436.664 109.001V70.4646C436.664 68.8242 438.002 67.4945 439.651 67.4945H444.065C445.715 67.4945 447.052 68.8242 447.052 70.4646V108.214C447.052 109.646 447.399 110.718 448.098 111.434Z" fill="white"/>
<path fill-rule="evenodd" clip-rule="evenodd" d="M473.296 93.1855C471.043 95.3316 469.915 98.1232 469.915 101.56C469.915 104.993 471.043 107.785 473.296 109.933C475.55 112.079 478.502 113.152 482.152 113.152C485.696 113.152 488.593 112.079 490.848 109.933C493.1 107.785 494.229 104.993 494.229 101.56C494.229 98.1232 493.1 95.3316 490.848 93.1855C488.593 91.0374 485.696 89.9643 482.152 89.9643C478.502 89.9643 475.55 91.0374 473.296 93.1855ZM493.947 84.4538C497.356 86.0774 500.012 88.3538 501.917 91.2885C503.823 94.2232 504.775 97.5987 504.775 101.415C504.775 105.28 503.823 108.69 501.917 111.647C500.012 114.608 497.356 116.898 493.947 118.519C490.537 120.143 486.607 120.952 482.152 120.952C477.643 120.952 473.671 120.143 470.236 118.519C466.801 116.898 464.131 114.608 462.226 111.647C460.321 108.69 459.368 105.28 459.368 101.415C459.368 97.5987 460.321 94.2232 462.226 91.2885C464.131 88.3538 466.801 86.0774 470.236 84.4538C473.671 82.8321 477.643 82.0212 482.152 82.0212C486.607 82.0212 490.537 82.8321 493.947 84.4538Z" fill="white"/>
<path fill-rule="evenodd" clip-rule="evenodd" d="M578.721 113.187C577.245 115.692 575.164 117.625 572.481 118.986C569.797 120.344 566.685 121.024 563.141 121.024C559.708 121.024 556.501 120.286 553.523 118.806C550.542 117.327 548.33 115.371 546.878 112.938C545.539 115.371 543.378 117.327 540.4 118.806C537.421 120.286 534.212 121.024 530.778 121.024C527.236 121.024 524.096 120.344 521.358 118.986C518.621 117.625 516.501 115.692 514.999 113.187C513.495 110.684 512.744 107.811 512.744 104.565V85.2795C512.744 83.6374 514.082 82.3076 515.729 82.3076H520.226C521.875 82.3076 523.213 83.6374 523.213 85.2795V104.134C523.213 106.615 524.057 108.584 525.748 110.039C527.436 111.495 529.678 112.222 532.471 112.222C535.259 112.222 537.473 111.495 539.111 110.039C540.748 108.584 541.566 106.615 541.566 104.134V85.2795C541.566 83.6374 542.903 82.3076 544.551 82.3076H549.129C550.777 82.3076 552.113 83.6374 552.113 85.2795V104.134C552.113 106.615 552.972 108.584 554.689 110.039C556.407 111.495 558.688 112.222 561.533 112.222C564.217 112.222 566.377 111.482 568.015 110.005C569.649 108.527 570.468 106.568 570.468 104.134V85.2795C570.468 83.6374 571.805 82.3076 573.453 82.3076H577.949C579.598 82.3076 580.936 83.6374 580.936 85.2795V104.565C580.936 107.811 580.196 110.684 578.721 113.187Z" fill="white"/>
<path fill-rule="evenodd" clip-rule="evenodd" d="M146.507 95.5827C130.096 112.421 107.219 120.995 83.7622 119.096C52.2228 116.548 25.4449 95.5753 15.5202 65.6645C15.3483 65.0545 15.1653 64.4556 15.0009 63.9702C12.1017 54.5095 11.037 44.7085 11.8421 34.8442C12.296 29.2761 13.344 23.7637 14.9542 18.4596C16.0152 14.9651 17.3378 11.5115 18.8863 8.19736C20.2332 5.30913 18.9741 1.8797 16.075 0.538799C13.1721 -0.80396 9.72936 0.449529 8.38253 3.33776C6.60419 7.14287 5.08737 11.1079 3.86756 15.1232C2.01823 21.2084 0.818974 27.5316 0.2978 33.9125C-0.624995 45.233 0.596681 56.4772 3.9647 67.4647C4.12908 67.9576 4.28039 68.4579 4.42236 68.9619C4.4373 69.0102 4.45972 69.053 4.47466 69.1013C4.48774 69.1404 4.48961 69.1813 4.50081 69.2204C15.8732 103.576 46.6169 127.664 82.8245 130.589C85.2865 130.786 87.7448 130.887 90.19 130.887C114.485 130.887 137.71 121.166 154.817 103.611C157.046 101.328 156.99 97.6787 154.696 95.46C152.4 93.2431 148.733 93.297 146.507 95.5827Z" fill="white"/>
<path fill-rule="evenodd" clip-rule="evenodd" d="M48.569 52.8748C48.6792 53.2058 48.7763 53.5424 48.8753 53.8791L49.0677 54.5188C49.0752 54.543 49.0883 54.5653 49.0957 54.5914C49.1032 54.6137 49.1032 54.636 49.1107 54.6564C54.5727 71.0894 69.2982 82.6126 86.6221 84.0112C87.8046 84.1079 88.9795 84.1544 90.1489 84.1544C106.143 84.1544 120.9 75.3502 128.462 60.9388L129.218 59.4007C129.644 58.588 130.083 57.7827 130.535 56.9867C132.11 54.2138 131.129 50.697 128.344 49.1292C125.561 47.5614 122.025 48.5396 120.455 51.3107C119.936 52.2239 119.432 53.1463 118.884 54.1952L118.132 55.724C112.24 66.9514 100.244 73.5462 87.5598 72.5196C74.891 71.4967 64.122 63.0738 60.1188 51.0652L59.9843 50.6207C59.8685 50.2227 59.7508 49.8247 59.622 49.4305C58.6618 45.9229 58.3274 42.2889 58.6263 38.6233C58.886 35.4505 56.5099 32.6702 53.323 32.4117C50.1175 32.1587 47.3417 34.5188 47.082 37.6916C46.6711 42.7464 47.1455 47.7697 48.4905 52.6181L48.569 52.8748Z" fill="white"/>
<path fill-rule="evenodd" clip-rule="evenodd" d="M31.6037 72.9436C32.6572 74.8611 34.641 75.9453 36.6921 75.9453C37.6299 75.9453 38.5825 75.7166 39.4624 75.2386C42.27 73.7117 43.3011 70.2098 41.7694 67.4145C40.1816 64.5226 38.8515 61.4763 37.8148 58.3593C36.8079 55.3353 33.5315 53.6987 30.4978 54.6974C27.4604 55.6961 25.8147 58.9581 26.8197 61.9803C28.075 65.7556 29.6834 69.4435 31.6037 72.9436Z" fill="white"/>
<path fill-rule="evenodd" clip-rule="evenodd" d="M139.866 41.3256C141.329 41.3256 142.793 40.777 143.919 39.6778C148.513 35.1958 153.657 31.2791 159.207 28.0356C169.268 22.1569 180.241 18.6549 191.823 17.6283C195.008 17.3438 197.361 14.5448 197.075 11.372C196.792 8.19923 193.978 5.85591 190.793 6.14232C177.493 7.32327 164.893 11.3441 153.344 18.0914C146.981 21.8109 141.084 26.3023 135.812 31.4409C133.53 33.6707 133.492 37.3215 135.73 39.5941C136.864 40.7472 138.364 41.3256 139.866 41.3256Z" fill="white"/>
<path fill-rule="evenodd" clip-rule="evenodd" d="M211.655 30.3808C209.236 29.914 206.756 29.5755 204.286 29.3765C198.519 28.9097 192.732 29.1849 187.089 30.1929C187.087 30.1929 187.085 30.1929 187.084 30.1929C166.96 33.7897 149.284 46.7282 139.737 64.9298L138.945 66.533C128.68 86.1016 107.783 97.5931 85.662 95.8077C74.071 94.8704 63.2796 90.4218 54.457 82.9436C52.0173 80.8774 48.3654 81.1731 46.2919 83.5946C44.2184 86.0197 44.5117 89.6593 46.9476 91.7218C57.6326 100.781 70.6955 106.167 84.7243 107.299C86.5474 107.448 88.365 107.521 90.1714 107.521C114.865 107.521 137.637 93.9331 149.273 71.7478L150.065 70.1428C157.905 55.2032 172.507 44.5114 189.133 41.5432C193.79 40.71 198.57 40.4831 203.348 40.8681C205.394 41.0336 207.449 41.3144 209.451 41.7012C209.823 41.7738 210.195 41.8072 210.559 41.8072C213.277 41.8072 215.701 39.8935 216.238 37.1373C216.846 34.0129 214.795 30.9871 211.655 30.3808Z" fill="white"/>
</svg>
