<svg width="654" height="315" viewBox="0 0 654 315" fill="none" xmlns="http://www.w3.org/2000/svg">
  <path d="M442.929 289.917C393.316 340.991 324.151 366.996 253.235 361.236C157.883 353.508 76.9267 289.895 46.9217 199.17C46.4021 197.32 45.8486 195.504 45.3517 194.032C36.5868 165.336 33.3677 135.608 35.8018 105.688C37.1741 88.7988 40.3423 72.0789 45.2105 55.9908C48.4182 45.3914 52.4167 34.9161 57.0984 24.8639C61.1703 16.1034 57.3638 5.70141 48.599 1.63426C39.8228 -2.43854 29.4145 1.36349 25.3426 10.1239C19.9662 21.6654 15.3805 33.692 11.6927 45.8709C11.6927 45.8709 11.6927 45.8709 11.6927 45.8765C6.10166 64.3339 2.47598 83.5076 0.900328 102.862C-1.88953 137.199 1.80393 171.304 11.9863 204.631C12.4833 206.126 12.9408 207.643 13.37 209.172C13.4151 209.319 13.4829 209.448 13.5281 209.595C13.5676 209.713 13.5733 209.838 13.6072 209.956C47.989 314.162 140.935 387.224 250.4 396.097C257.844 396.695 265.276 397 272.668 397C346.12 397 416.335 367.515 468.054 314.269C474.792 307.342 474.622 296.274 467.687 289.545C460.747 282.821 449.661 282.984 442.929 289.917" fill="currentColor"/>
  <path d="M146.928 160.124C147.262 161.128 147.555 162.149 147.855 163.17L148.436 165.111C148.459 165.184 148.498 165.252 148.521 165.331C148.543 165.398 148.543 165.466 148.566 165.528C165.079 215.372 209.597 250.324 261.97 254.566C265.545 254.859 269.097 255 272.633 255C320.985 255 365.599 228.296 388.46 184.584L390.747 179.918C392.035 177.453 393.362 175.011 394.728 172.596C399.489 164.186 396.524 153.519 388.104 148.763C379.689 144.008 368.999 146.975 364.255 155.38C362.685 158.15 361.161 160.948 359.506 164.129L357.23 168.766C339.418 202.821 303.151 222.824 264.805 219.71C226.505 216.607 193.948 191.059 181.846 154.635L181.439 153.287C181.089 152.08 180.733 150.873 180.344 149.677C177.441 139.038 176.43 128.016 177.334 116.897C178.119 107.274 170.935 98.8404 161.301 98.0563C151.61 97.2892 143.218 104.448 142.433 114.071C141.191 129.403 142.625 144.64 146.691 159.346L146.928 160.124Z" fill="currentColor"/>
  <path d="M95.2809 220.942C98.4508 226.728 104.419 230 110.59 230C113.412 230 116.278 229.31 118.925 227.867C127.372 223.26 130.475 212.693 125.866 204.258C121.089 195.532 117.087 186.339 113.968 176.934C110.939 167.809 101.081 162.87 91.9538 165.884C82.8153 168.898 77.8638 178.741 80.8875 187.86C84.6643 199.252 89.5033 210.381 95.2809 220.942Z" fill="currentColor"/>
  <path d="M422.548 126C426.981 126 431.419 124.333 434.833 120.992C448.754 107.37 464.345 95.4669 481.164 85.6095C511.656 67.743 544.91 57.0999 580.009 53.9799C589.662 53.1151 596.795 44.6086 595.929 34.9659C595.068 25.3233 586.542 18.2016 576.89 19.072C536.582 22.6611 498.397 34.8812 463.394 55.3873C444.112 66.6916 426.239 80.3417 410.263 95.9586C403.345 102.736 403.232 113.831 410.014 120.738C413.45 124.242 417.996 126 422.548 126Z" fill="currentColor"/>
  <path d="M639.831 92.7199C632.522 91.3021 625.026 90.2741 617.564 89.6698C600.14 88.252 582.654 89.088 565.603 92.1494C565.597 92.1494 565.592 92.1494 565.586 92.1494C504.78 103.073 451.374 142.368 422.526 197.648L420.133 202.517C389.117 261.949 325.974 296.849 259.135 291.427C224.112 288.58 191.505 275.07 164.847 252.358C157.475 246.082 146.441 246.981 140.175 254.335C133.91 261.7 134.796 272.754 142.157 279.018C174.442 306.531 213.912 322.888 256.301 326.328C261.81 326.78 267.302 327 272.76 327C347.372 327 416.181 285.734 451.34 218.355L453.733 213.48C477.422 168.108 521.544 135.636 571.778 126.621L571.783 126.621C585.855 124.091 600.293 123.401 614.731 124.571C620.911 125.073 627.12 125.926 633.171 127.101C634.294 127.321 635.417 127.423 636.518 127.423C644.73 127.423 652.057 121.611 653.677 113.24C655.517 103.751 649.319 94.5612 639.831 92.7199Z" fill="currentColor"/>
</svg>
